<svg width="144" height="164" viewBox="0 0 144 164" fill="none" xmlns="http://www.w3.org/2000/svg">
<ellipse cx="76.1523" cy="150.264" rx="38.0234" ry="13.7371" fill="#E7E9ED"/>
<path d="M18.5107 61.0195C-10.8036 80.2468 -1.09869 111.915 18.6492 124.025C35.3415 134.26 52.6571 130.237 60.7811 124.75L66.6806 89.3L46.782 64.9408L18.5066 61.0236L18.5107 61.0195Z" fill="#F7DE93"/>
<path d="M66.0623 132.707C65.2963 135.238 66.5186 138.218 68.8205 139.433C71.1265 140.647 74.2515 139.959 75.8771 137.88L66.0623 132.707Z" fill="#7D808C"/>
<path d="M125.032 112.251C124.999 116.295 128.719 119.075 130.748 120.289C131.286 120.611 131.97 120.24 132.007 119.613C132.085 118.28 131.832 116.829 132.415 115.577C133.099 114.102 134.688 113.547 136.2 113.392C137.259 113.282 138.461 113.172 139.353 112.504C140.449 111.68 140.783 110.148 141.007 108.872C141.17 107.947 141.345 105.635 139.952 105.937C136.758 106.63 134.672 107.131 132.08 106.434L121.65 105.978L125.032 112.247V112.251Z" fill="#F7DE93"/>
<path d="M122.053 107.039C122.342 107.463 125.528 111.621 130.279 109.53C132.344 108.621 133.978 106.766 134.373 104.512C134.83 101.903 133.4 99.0827 130.849 97.9414L123.772 98.8056L122.049 107.035L122.053 107.039Z" fill="#9196A3"/>
<path d="M68.2042 37.8762C89.207 22.1952 136.118 26.9358 143.521 65.6798C145.106 73.9748 142.669 85.6816 137.483 92.3461C132.541 98.6968 126.201 103.821 112.438 108.598C102.742 111.965 91.9245 113.75 81.6899 114.133C72.4006 114.48 62.5206 113.469 54.2906 108.818C46.0076 104.138 40.2955 94.7184 39.8555 84.0755" fill="#A3A8B5"/>
<path d="M120.195 74.757C120.745 76.1062 119.633 77.1946 118.313 77.7245C117.025 78.2381 115.542 78.2299 114.992 76.8766C113.908 74.2108 119.079 72.0178 120.195 74.757Z" fill="#FD565C"/>
<path d="M118.456 65.6875C118.456 65.6875 118.44 66.9144 117.441 68.0761" stroke="#7D808C" stroke-width="2" stroke-miterlimit="10" stroke-linecap="round"/>
<path d="M112.859 84.3394C111.632 86.3897 112.957 91.6806 118.009 90.7145C122.759 89.8055 124.633 85.0323 122.808 81.3516L117.45 81.6777L112.859 84.3394Z" fill="#7D808C"/>
<path d="M109.877 68.8164C109.877 68.8164 110.924 69.811 112.823 69.8925" stroke="#7D808C" stroke-width="2" stroke-miterlimit="10" stroke-linecap="round"/>
<path d="M108.112 80.7045C107.102 81.0836 106.78 82.604 107.326 83.6434C107.872 84.6869 109.037 85.2291 110.121 85.2413C111.262 85.2535 112.337 84.7685 113.34 84.2345C114.008 83.8798 114.647 83.4804 115.287 83.0728C115.996 82.6244 116.75 82.229 117.508 81.9518C117.699 81.8825 117.899 81.8295 118.098 81.7888C118.978 81.6135 119.83 81.536 120.714 81.5483C121.439 81.5564 122.164 81.5401 122.886 81.4871C124.002 81.4015 125.147 81.2344 126.096 80.6271C127.009 80.0401 127.705 78.9558 127.612 77.786C127.518 76.6161 126.438 75.4992 125.379 75.7193" stroke="#7D808C" stroke-width="2" stroke-miterlimit="10" stroke-linecap="round"/>
<path d="M99.5919 76.3539C103.251 75.714 106.477 74.915 106.844 77.0143C107.227 79.2195 104.273 79.301 100.61 79.941C96.9517 80.5809 93.4723 81.6244 93.0853 79.4192C92.7186 77.32 95.9291 76.9939 99.5919 76.3539Z" fill="white"/>
<mask id="mask0_5076_11098" style="mask-type:luminance" maskUnits="userSpaceOnUse" x="93" y="75" width="14" height="6">
<path d="M99.5919 76.3539C103.251 75.714 106.477 74.915 106.844 77.0143C107.227 79.2195 104.273 79.301 100.61 79.941C96.9517 80.5809 93.4723 81.6244 93.0853 79.4192C92.7186 77.32 95.9291 76.9939 99.5919 76.3539Z" fill="white"/>
</mask>
<g mask="url(#mask0_5076_11098)">
<path d="M97.3111 78.9391C96.8262 76.1551 98.1993 74.9281 100.057 74.4594V74.439C100.139 74.4227 100.224 74.4145 100.314 74.4023C100.399 74.386 100.485 74.3656 100.57 74.3493V74.3697C102.481 74.1781 104.188 74.867 104.673 77.651C105.109 80.1538 103.777 81.613 101.927 82.1226V82.1511C101.846 82.1674 101.76 82.1756 101.675 82.1878C101.589 82.2082 101.503 82.2286 101.418 82.2408V82.2122C99.4989 82.359 97.7511 81.4378 97.3151 78.935L97.3111 78.9391Z" fill="#494949"/>
</g>
<path d="M128.967 67.3136C126.013 68.5038 123.699 69.3435 124.351 70.9618C125.035 72.6575 127.818 71.7689 130.768 70.5786C133.722 69.3884 135.498 68.3245 134.814 66.6288C134.162 65.0106 131.921 66.1274 128.971 67.3177L128.967 67.3136Z" fill="white"/>
<mask id="mask1_5076_11098" style="mask-type:luminance" maskUnits="userSpaceOnUse" x="124" y="65" width="11" height="7">
<path d="M128.967 67.3136C126.013 68.5038 123.699 69.3435 124.351 70.9618C125.035 72.6575 127.818 71.7689 130.768 70.5786C133.722 69.3884 135.498 68.3245 134.814 66.6288C134.162 65.0106 131.921 66.1274 128.971 67.3177L128.967 67.3136Z" fill="white"/>
</mask>
<g mask="url(#mask1_5076_11098)">
<path d="M132.887 67.7319C132.145 65.543 130.622 65.221 129.033 65.6367V65.6204C128.955 65.6449 128.886 65.6734 128.817 65.6979C128.748 65.7183 128.674 65.7386 128.605 65.7631V65.7794C127.097 66.4153 126.083 67.5974 126.825 69.7863C127.493 71.7551 129.078 72.2605 130.675 71.8733L130.683 71.8937C130.752 71.8692 130.821 71.8407 130.891 71.8162C130.964 71.7958 131.033 71.7754 131.107 71.751L131.098 71.7306C132.598 71.0621 133.551 69.6966 132.883 67.7278L132.887 67.7319Z" fill="#494949"/>
</g>
<path d="M93.4074 35.3408C84.9126 17.1774 95.7257 3.89313 108.6 0.738175C120.456 -2.16813 133.404 3.68117 138.183 15.2249C142.914 26.6463 137.145 39.9999 127.562 45.6657L93.4033 35.3408H93.4074Z" fill="#A3A8B5"/>
<mask id="mask2_5076_11098" style="mask-type:luminance" maskUnits="userSpaceOnUse" x="90" y="0" width="50" height="46">
<path d="M93.4074 35.3408C84.9126 17.1774 95.7257 3.89313 108.6 0.738175C120.456 -2.16813 133.404 3.68117 138.183 15.2249C142.914 26.6463 137.145 39.9999 127.562 45.6657L93.4033 35.3408H93.4074Z" fill="white"/>
</mask>
<g mask="url(#mask2_5076_11098)">
<path d="M133.497 32.6622C130.189 39.6936 126.542 43.3376 115.546 39.9422C102.863 36.0209 104.387 24.09 108.049 17.4458C112.702 9.00814 124.786 6.46868 131.603 13.7202C137.351 19.8385 135.473 28.4678 133.497 32.6662V32.6622Z" fill="#7D808C"/>
</g>
<path d="M52.5058 108.559C53.0355 108.926 53.7322 108.857 54.0133 108.278C77.4036 59.9058 131.819 57.2685 142.514 61.6911C143.337 62.0295 143.948 61.2346 143.716 60.3786C143.215 58.528 136.431 43.5277 125.492 36.0235C115.131 28.9147 102.693 26.4241 90.3761 28.1606C78.7603 29.8033 68.0939 34.874 59.2365 42.5291C45.4492 54.4396 36.9381 71.3721 40.0671 89.6455C40.7638 93.7136 44.2066 102.795 52.5058 108.559Z" fill="#000A12"/>
<mask id="mask3_5076_11098" style="mask-type:luminance" maskUnits="userSpaceOnUse" x="39" y="27" width="105" height="82">
<path d="M52.5058 108.559C53.0355 108.926 53.7322 108.857 54.0133 108.278C77.4036 59.9058 131.819 57.2685 142.514 61.6911C143.337 62.0295 143.948 61.2346 143.716 60.3786C143.215 58.528 136.431 43.5277 125.492 36.0235C115.131 28.9147 102.693 26.4241 90.3761 28.1606C78.7603 29.8033 68.0939 34.874 59.2365 42.5291C45.4492 54.4396 36.9381 71.3721 40.0671 89.6455C40.7638 93.7136 44.2066 102.795 52.5058 108.559Z" fill="white"/>
</mask>
<g mask="url(#mask3_5076_11098)">
<path d="M44.0707 102.959L39.9395 101.218C41.0721 98.5238 46.5153 88.3496 56.3057 77.3236C68.4674 63.6236 82.8455 53.7266 97.8876 48.7048C116.804 42.3867 132.478 44.6898 142.623 46.9684L141.641 51.3421C132.018 49.1776 117.163 46.9928 99.3095 52.9563C81.2443 58.989 67.7748 71.1564 59.6588 80.2992C50.2718 90.8728 45.1341 100.44 44.0748 102.959H44.0707Z" fill="white"/>
<path d="M38.0415 91.9001L33.9102 90.1595C35.0469 87.4652 40.486 77.2911 50.2765 66.265C62.4381 52.565 76.8162 42.6681 91.8583 37.6462C110.775 31.3281 126.449 33.6312 136.594 35.9098L135.612 40.2835C125.988 38.119 111.134 35.9342 93.2802 41.8977C75.215 47.9304 61.7455 60.0978 53.6296 69.2406C44.2425 79.8142 39.1048 89.381 38.0415 91.9001Z" fill="white"/>
</g>
<path d="M62.1261 112.214C59.2252 118.174 60.0197 126.473 64.5707 131.116C73.7581 140.491 90.8252 143.744 107.534 138.889C114.66 136.818 119.288 132.583 122.665 127.158C125.941 121.895 128.211 115.239 123.248 104.262L63.4584 109.72L62.1302 112.214H62.1261Z" fill="#A3A8B5"/>
<path d="M66.9649 120.746C63.5833 118.847 60.1853 116.609 58.4375 113.315C56.6896 110.022 57.2111 105.42 60.5479 103.451C62.9477 102.036 66.1867 102.338 68.6516 103.651C71.1166 104.959 72.9215 107.123 74.3963 109.382C76.4538 112.121 76.4172 115.851 74.3963 118.357C72.6689 120.501 69.7558 121.435 66.9649 120.742V120.746Z" fill="#A3A8B5"/>
<mask id="mask4_5076_11098" style="mask-type:luminance" maskUnits="userSpaceOnUse" x="57" y="102" width="19" height="19">
<path d="M66.9649 120.746C63.5833 118.847 60.1853 116.609 58.4375 113.315C56.6896 110.022 57.2111 105.42 60.5479 103.451C62.9477 102.036 66.1867 102.338 68.6516 103.651C71.1166 104.959 72.9215 107.123 74.3963 109.382C76.4538 112.121 76.4172 115.851 74.3963 118.357C72.6689 120.501 69.7558 121.435 66.9649 120.742V120.746Z" fill="white"/>
</mask>
<g mask="url(#mask4_5076_11098)">
<path d="M56.0981 112.521C59.3086 118.065 65.0533 120.661 69.5635 124.904C72.9981 128.137 78.1969 122.96 74.75 119.716C70.8143 116.01 65.2122 113.622 62.4336 108.82C60.0705 104.736 53.731 108.424 56.1022 112.521H56.0981Z" fill="#9196A3"/>
</g>
<path d="M59.3053 114.692C62.6136 114.969 65.7834 113.477 67.5109 110.799C69.601 107.558 68.615 104.081 68.4602 103.56C66.0197 102.333 62.8866 102.08 60.5479 103.458C57.2111 105.422 56.6896 110.024 58.4375 113.322C58.6942 113.803 58.9875 114.26 59.3053 114.696V114.692Z" fill="#7D808C"/>
<path d="M121.275 134.352C120.203 136.174 118.578 137.674 116.647 138.538C115.632 138.991 114.398 139.26 113.452 138.677C112.259 137.939 109.997 136.207 113.64 130.064C114.54 128.821 115.763 127.679 117.099 126.941C118.566 126.134 120.611 126.11 121.739 127.349C122.681 128.38 122.734 129.95 122.448 131.315C122.224 132.383 121.821 133.406 121.271 134.348L121.275 134.352Z" fill="#7D808C"/>
<path d="M39.3465 22.9128C52.3026 20.9807 63.1727 28.1915 67.9722 40.4444C55.0079 59.0155 54.9346 79.8039 54.9346 79.8039C54.9346 79.8039 50.4081 82.3923 41.5099 82.2293C32.1269 82.0581 21.3301 76.437 16.7465 68.517C7.0661 51.8006 17.4636 26.1737 39.3465 22.9087V22.9128Z" fill="#A3A8B5"/>
<mask id="mask5_5076_11098" style="mask-type:luminance" maskUnits="userSpaceOnUse" x="13" y="22" width="55" height="61">
<path d="M39.3465 22.9128C52.3026 20.9807 63.1727 28.1915 67.9722 40.4444C55.0079 59.0155 54.9346 79.8039 54.9346 79.8039C54.9346 79.8039 50.4081 82.3923 41.5099 82.2293C32.1269 82.0581 21.3301 76.437 16.7465 68.517C7.0661 51.8006 17.4636 26.1737 39.3465 22.9087V22.9128Z" fill="white"/>
</mask>
<g mask="url(#mask5_5076_11098)">
<path d="M28.3982 45.6019C35.9275 31.1681 57.3499 28.3597 66.2114 45.7608C73.3332 59.7421 58.1729 78.9001 41.5336 74.4652C29.482 71.2532 22.5558 56.7991 28.3942 45.5978L28.3982 45.6019Z" fill="#7D808C"/>
</g>
<path d="M119.072 105.66C119.072 105.66 107.248 112.728 93.6934 110.719" stroke="#7D808C" stroke-width="2" stroke-miterlimit="10" stroke-linecap="round"/>
<path d="M110.278 127.046C115.333 125.698 118.603 121.498 117.583 117.665C116.562 113.833 111.636 111.818 106.581 113.165C101.526 114.513 98.2553 118.713 99.2761 122.546C100.297 126.378 105.222 128.393 110.278 127.046Z" fill="#7D808C"/>
</svg>
