<?xml version="1.0" encoding="UTF-8"?>
<svg id="_레이어_2" data-name="레이어 2" xmlns="http://www.w3.org/2000/svg" viewBox="0 0 219.46 204.4">
  <defs>
    <style>
      .cls-1 {
        fill: #231815;
      }

      .cls-2 {
        stroke: #505151;
      }

      .cls-2, .cls-3, .cls-4 {
        fill: none;
        stroke-linecap: round;
      }

      .cls-2, .cls-4 {
        stroke-linejoin: round;
      }

      .cls-5 {
        fill: #fff;
      }

      .cls-6 {
        fill: #99968d;
      }

      .cls-7 {
        fill: #2b3036;
      }

      .cls-8 {
        fill: #6c6c6c;
      }

      .cls-3 {
        stroke: #514e47;
        stroke-miterlimit: 10;
        stroke-width: 4px;
      }

      .cls-4 {
        stroke: #231815;
      }

      .cls-9 {
        fill: #464c51;
      }

      .cls-10 {
        fill: #514e47;
      }
    </style>
  </defs>
  <g id="_레이어_2-2" data-name="레이어 2">
    <g>
      <g>
        <path class="cls-8" d="M218.44,119.07c1.72,4.66.95,17.44-29.35,16.96,1.55-8.75,2-18.65,1.83-28.18-.07-3.83-.23-7.6-.47-11.21.27,3.73.48,7.47.58,11.21,3.63,2.68,11.43,8.18,14.58,8.3,4.17.17,11.08-1.83,12.83,2.92Z"/>
        <path class="cls-7" d="M213.52,65.75c.59.5.44,1.45-.26,1.77-2.71,1.25-8.83,3.49-14.91,1.8-2.87-7.28-9.09-10.17-9.09-10.17.27-1.32.3-2.39.17-3.24h.08s9.71-2.38,24.01,9.84Z"/>
        <path class="cls-7" d="M205.06,83.59c.24.13.12.5-.15.46-3.33-.54-11.55-2.45-16.5-8.49-.55-4.27-1.22-8.53-2.02-12.77.93-.33,1.57-.93,2-1.53.73-1.03.87-2.11.87-2.11,0,0,6.22,2.89,9.09,10.17.35.87.65,1.81.88,2.82.28,1.2.41,2.41.48,3.64.08,1.4.74,5.23,5.35,7.81Z"/>
        <path class="cls-8" d="M87.55,195.8c-1.09,3.89-3.17,6-5.07,7.14-2.23,1.34-5.01,1.26-7.25-.07-6.78-4.01-6.86-12.82-6.17-18.23.36-2.76,1.96-5.21,4.33-6.67l3.16-1.96c1.04-.64,1.19-2.07.32-2.92-2.73-2.67-4.95-5.59-6.74-8.73-6.18-10.78-7.22-23.9-5.97-36.4,4.15,2.38,8.52,2.63,12.68,1.54,2.74-.71,5.38-2,7.82-3.64.5,4.37.69,8.01.77,10.2.02.77.91,1.22,1.52.75,3.02-2.32,7.78-2.69,9.52-2.74.37-.01.71-.22.85-.57,1.13-2.93,5.23-5.1,7.48-6.11.66-.29.76-1.17.2-1.63-2.03-1.64-6.12-5.3-10-10.76,2.6-4.33,3.55-8.5,1.94-10.76-2.43-3.41-5.85-4.5-9.5-4.36-3.67-8.26-9.44-12.21-13.3-14.02.08-.08.16-.17.24-.25.07-.08.15-.16.23-.24.09-.1.19-.19.27-.27l.25-.25c.09-.09.16-.17.24-.23.07-.08.14-.15.21-.21.06-.07.13-.13.19-.19.06-.07.11-.12.17-.16l.14-.14c.05-.05.09-.09.12-.11l.09-.09s.02-.03.04-.04c0-.01.03-.02.03-.03.03-.04.05-.04.05-.04h0c.45-1.58.82-3.24,1.14-4.93.71-3.69,1.19-7.55,1.71-11.09,0,0,1.26,1.94,3.55,4.42,3.69,4,10.06,9.41,18.11,10.34,10.78,1.25,11.22-4.34,17-4,5.78.33,11.67,7.11,21,7.44,9.04.33,27.63-6.81,45.55-22.61.56-.5,1.13-1,1.69-1.52.08.38.15.75.22,1.13.8,4.24,1.47,8.5,2.02,12.77.83,6.33,1.43,12.69,1.9,19.05.05.67.1,1.35.14,2.03.24,3.61.4,7.38.47,11.21.17,9.53-.28,19.43-1.83,28.18-2.31,11.67-6.91,23.08-14.63,32.23-.3.35-.6.7-.9,1.04-.52.57-.55,1.43-.09,2.06,3.79,5.28,4.53,13.16,4.67,16.38.03.82.65,1.49,1.46,1.62,5.44.87,7.22,3.36,7.47,5.93.38,3.85-2.84,7.11-6.71,7.11h-14.36c-1.84,0-3.58-.92-4.54-2.49-4.04-6.62-9.99-11.64-13.98-14.45v-.05c-.08.01-.16.03-.23.05-5.2,1.26-11.5,2.44-18.29,2.64-7.5.22-14.19-.17-20.15-1.03l-.23-.13c-3.18,5.31-9.3,10.27-21.03,8.86Z"/>
        <path class="cls-7" d="M189.43,55.91c.13.85.1,1.92-.17,3.24,0,0-.14,1.08-.87,2.11-.43.6-1.07,1.2-2,1.53-.07-.38-.14-.75-.22-1.13-.31-1.62-.65-3.23-1.01-4.84-.18-.83-.37-1.66-.57-2.5v-1.96h.34s3.9-.31,4.5,3.55Z"/>
        <path class="cls-7" d="M185.16,56.82c.36,1.61.7,3.22,1.01,4.84-.56.52-1.13,1.02-1.69,1.52-17.92,15.8-36.51,22.94-45.55,22.61-9.33-.33-15.22-7.11-21-7.44-5.78-.34-6.22,5.25-17,4-8.05-.93-14.42-6.34-18.11-10.34-2.29-2.48-3.55-4.42-3.55-4.42v-.03c.03-.18.06-.36.08-.54.86-5.78,1.8-11.64,3.11-17.39,0,0,.89-.24,2.56-.6,0,0,35.22,21.54,94.11,3.54h.01c1.81.55,3.63,1.13,5.45,1.75.2.84.39,1.67.57,2.5ZM146.3,70.25c0-1.51-.33-2.94-.91-4.17l-12.63,2.71c-.08.48-.11.96-.11,1.46,0,4.6,3.06,8.32,6.83,8.32s6.82-3.72,6.82-8.32ZM110.53,68.03c.04-.49.06-.97.04-1.44l-10.97-3.8c-.64,1.16-1.08,2.52-1.23,4-.46,4.5,1.88,8.41,5.25,8.75,3.35.34,6.45-3.01,6.91-7.51Z"/>
        <path class="cls-9" d="M184.59,52.36v1.96c-1.82-.62-3.64-1.2-5.45-1.75h-.01c-3.16-.95-6.3-1.8-9.41-2.54,1.6-7.37-1.25-15.24-1.39-15.63,5.32,2.02,9.49,4.07,12.27,5.57.62.34,1.17.64,1.65.92,1.45.84,2.34,2.13,2.34,3.8v7.67Z"/>
        <path class="cls-9" d="M94.47,32.64c-2.56.84-5.15,1.79-7.77,2.86,1.41-3.62,3.08-7.13,5.1-10.47,0,0,.01-.01.03-.02,1.19-.56,34.29-15.86,85.78,7.04,1.1,2.59,2.09,5.24,2.99,7.92-2.78-1.5-6.95-3.55-12.27-5.57h-.01c-4.45-1.69-9.7-3.36-15.63-4.67-.01,0-.01,0-.01,0-4.19-.93-8.71-1.68-13.53-2.14-4.96-.48-10.22-.64-15.74-.37-4.88.25-9.96.83-15.21,1.84-4.46.87-9.05,2.04-13.73,3.59Z"/>
        <path class="cls-5" d="M173.7,24.09c1.45,2.56,2.74,5.23,3.91,7.96-51.49-22.9-84.59-7.6-85.78-7.04,1.64-2.75,3.54-5.39,5.7-7.88,1.46-1.68,3.01-3.22,4.64-4.64,0,0,.01,0,.02-.01.89-.32,30.14-10.65,71.51,11.61Z"/>
        <path class="cls-8" d="M93.66,47.41c3.97-.62,8.89-1.26,14.54-1.73,4.61-.39,9.72-.66,15.21-.71,5.15-.05,10.64.09,16.39.5h.04c4.84.35,9.86.89,15,1.67,4.87.73,9.84,1.68,14.88,2.89,3.11.74,6.25,1.59,9.41,2.54-58.89,18-94.11-3.54-94.11-3.54,1.91-.42,4.85-1.01,8.64-1.62Z"/>
        <path class="cls-9" d="M120.28,2.7c.84-.14,20.53-3.36,45.25,10.16.01,0,.01.01.02.01,3.17,3.36,5.85,7.15,8.15,11.22C132.33,1.83,103.08,12.16,102.19,12.48c5.33-4.63,11.48-7.86,18.09-9.78Z"/>
        <path class="cls-9" d="M168.33,34.4c.14.39,2.99,8.26,1.39,15.63-5.04-1.21-10.01-2.16-14.88-2.89h0c2.15-9.12-1.95-17.02-2.15-17.41,5.93,1.31,11.18,2.98,15.63,4.66h.01Z"/>
        <path class="cls-5" d="M160.56,8.28c1.79,1.41,3.44,2.94,4.97,4.58C140.81-.66,121.12,2.56,120.28,2.7c6.84-2,14.17-2.6,21.57-1.94,6.85.62,13.32,3.26,18.71,7.52Z"/>
        <path class="cls-9" d="M152.69,29.73c.2.39,4.3,8.29,2.15,17.4h0c-5.14-.77-10.16-1.31-15-1.66l.02-.28c1.89-7.58-.71-17.61-.71-17.61,4.82.46,9.34,1.21,13.53,2.14,0,0,0,0,.01,0Z"/>
        <path class="cls-5" d="M145.39,66.08c.58,1.23.91,2.66.91,4.17,0,4.6-3.05,8.32-6.82,8.32s-6.83-3.72-6.83-8.32c0-.5.03-.98.11-1.46l12.63-2.71Z"/>
        <path class="cls-9" d="M139.15,27.58s2.6,10.03.71,17.61l-.02.28h-.04c-5.75-.41-11.24-.55-16.39-.5v-17.76c5.52-.27,10.78-.11,15.74.37Z"/>
        <path class="cls-9" d="M123.41,27.21v17.76c-5.49.05-10.6.32-15.21.71-2.33-5.13,0-16.63,0-16.63,5.25-1.01,10.33-1.59,15.21-1.84Z"/>
        <path class="cls-5" d="M110.57,66.59c.02.47,0,.95-.04,1.44-.46,4.5-3.56,7.85-6.91,7.51-3.37-.34-5.71-4.25-5.25-8.75.15-1.48.59-2.84,1.23-4l10.97,3.8Z"/>
        <path class="cls-9" d="M108.2,29.05s-2.33,11.5,0,16.63c-5.65.47-10.57,1.11-14.54,1.73-1.81-8.4.69-14.48.81-14.77,4.68-1.55,9.27-2.72,13.73-3.59Z"/>
        <path class="cls-6" d="M91.88,119.59s.07.06.11.11c1.25,1.6,2.38,3.46,3.47,5.17.15.25.55.02.41-.24-.52-.99-1.04-1.98-1.59-2.96-.46-.79-1.12-2.07-1.7-2.77-.07-.08-.13-.14-.2-.18,1-1.23,1.88-2.48,2.62-3.72,3.88,5.46,7.97,9.12,10,10.76.56.46.46,1.34-.2,1.63-2.25,1.01-6.35,3.18-7.48,6.11-.14.35-.48.56-.85.57-1.74.05-6.5.42-9.52,2.74-.61.47-1.5.02-1.52-.75-.08-2.19-.27-5.83-.77-10.2,1.75-1.17,3.38-2.53,4.86-3.99l1.82,7.84c.09.47.83.33.76-.14-.02-.08-1.1-8.06-1.13-8.13-.07-.3-.27-.48-.49-.55.44-.46.87-.93,1.27-1.41.07.06.16.1.28.13-.04.02-.11,0-.15-.02Z"/>
        <path class="cls-8" d="M78.94,101.84c1.09-.41,2.21-.8,3.35-1.1.22.19.54.24.8.08.14-.09.25-.21.3-.36,1.35-.33,2.71-.54,4.05-.58,3.65-.14,7.07.95,9.5,4.36,1.61,2.26.66,6.43-1.94,10.76-.74,1.24-1.62,2.49-2.62,3.72-.56-.38-1.12.41-.63.76-.4.48-.83.95-1.27,1.41-.51-.15-1.17.26-.97.96v.02c-1.47,1.46-3.1,2.82-4.85,3.99-2.44,1.64-5.08,2.93-7.82,3.64-4.16,1.09-8.53.84-12.68-1.54-.01,0-.01-.01-.02-.01-.17-.1-.34-.2-.51-.31-.53-.32-1.06-.69-1.58-1.09-7.19-5.53-6.03-13.78-2.18-21.57.23-.47.47-.93.72-1.39.49-.92,1.02-1.84,1.58-2.73.28-.45.56-.9.84-1.34.29-.44.58-.88.88-1.31.44-.65.89-1.28,1.35-1.9.61-.84,1.22-1.64,1.83-2.42.15-.19.31-.39.46-.58.31-.38.61-.75.91-1.12l.45-.54c.6-.71,1.19-1.39,1.75-2.03.05-.06.11-.13.17-.19t0-.01c.08-.09.15-.17.23-.25,1.47,1.5,2.79,3.18,3.97,5.02,1.52,2.35,2.82,4.94,3.93,7.65Z"/>
        <path class="cls-10" d="M95.87,124.63c.14.26-.26.49-.41.24-1.09-1.71-2.22-3.57-3.47-5.17-.04-.05-.08-.07-.11-.11.04.02.11.04.15.02-.12-.03-.21-.07-.28-.13.11-.12.22-.25.32-.37.11-.13.21-.26.31-.39.07.04.13.1.2.18.58.7,1.24,1.98,1.7,2.77.55.98,1.07,1.97,1.59,2.96Z"/>
        <path class="cls-9" d="M94.47,32.64c-.12.29-2.62,6.37-.81,14.77-3.79.61-6.73,1.2-8.64,1.62-1.67.36-2.56.6-2.56.6l.18-9.33c0-1.89.97-3.51,2.71-4.24.45-.19.9-.38,1.35-.56,2.62-1.07,5.21-2.02,7.77-2.86Z"/>
        <path class="cls-10" d="M92.38,118.72c-.1.13-.2.26-.31.39-.1.12-.21.25-.32.37-.49-.35.07-1.14.63-.76Z"/>
        <path class="cls-10" d="M92.1,129.57c.07.47-.67.61-.76.14l-1.82-7.84.51-.51c.15-.15.3-.31.45-.47.22.07.42.25.49.55.03.07,1.11,8.05,1.13,8.13Z"/>
        <path class="cls-10" d="M90.48,120.89c-.15.16-.3.32-.45.47l-.51.51v-.02c-.21-.7.45-1.11.96-.96Z"/>
        <path class="cls-6" d="M87.44,99.88c-1.34.04-2.7.25-4.05.58.07-.18.06-.39-.05-.58-1.5-2.47-3.02-5-5.33-6.81-.18-.14-.41.09-.32.27l-2.68.85c-1.18-1.84-2.5-3.52-3.97-5.02-.96-.98-1.98-1.88-3.07-2.67,0,0,.79-.84,2.13-2.07,0,0,1.65.3,4.03,1.43h.01c3.86,1.81,9.63,5.76,13.3,14.02Z"/>
        <path class="cls-10" d="M83.34,99.88c.11.19.12.4.05.58-.16.03-.31.07-.47.11-.21.05-.42.11-.63.17-.08-.06-.14-.14-.18-.24-1.16-2.5-2.39-5.14-4.37-7.09-.02-.02-.04-.05-.05-.07-.09-.18.14-.41.32-.27,2.31,1.81,3.83,4.34,5.33,6.81Z"/>
        <path class="cls-10" d="M82.92,100.57c.16-.04.31-.08.47-.11-.05.15-.16.27-.3.36-.26.16-.58.11-.8-.08.21-.06.42-.12.63-.17Z"/>
        <path class="cls-6" d="M82.11,100.5c.04.1.1.18.18.24-1.14.3-2.26.69-3.35,1.1-1.11-2.71-2.41-5.3-3.93-7.65l2.68-.85s.03.05.05.07c1.98,1.95,3.21,4.59,4.37,7.09Z"/>
        <path class="cls-6" d="M79.27,67.56v.03c-.52,3.54-1,7.4-1.71,11.09-3.06,1.92-5.72,4.17-7.46,5.75-2.04-2.74-4.58-4.24-6.94-5.05.15-.14.26-.32.28-.53.52-3.91.09-7.8-.95-11.56-.09-.32-.6-.2-.53.13.62,3.64.65,7.51-.22,11.09-.04.16-.04.31,0,.46-3.15-.76-5.68-.4-5.68-.4h-.01c.45-6.43-5.43-13.98-7.68-16.61-.43-.51-.17-1.29.47-1.46,5.01-1.33,10.9,2.8,10.9,2.8,7.44-7.31,15.94,3,15.94,3,1.25-.05,2.29.14,3.16.49.15.27.28.51.42.77Z"/>
        <path class="cls-6" d="M70.81,89.42s.01,0,0,.01c-.06.06-.12.13-.17.19-.56.64-1.15,1.32-1.75,2.03l-.45.54c-.3.37-.6.74-.91,1.12-.15.19-.31.39-.46.58-.61.78-1.23,1.58-1.83,2.42-.46.62-.91,1.25-1.35,1.9-.3.43-.59.87-.88,1.31-.28.44-.56.89-.84,1.34-.56.89-1.09,1.81-1.58,2.73-.25.46-.49.92-.72,1.39-3.85,7.79-5.01,16.04,2.18,21.57.52.4,1.05.77,1.58,1.09.17.11.34.21.51.31.01,0,.01.01.02.01-1.25,12.5-.21,25.62,5.97,36.4-11.67,10.9-67.32,16.41-69.55-28.33-2.44-49.19,55.06-55.25,55.06-55.25,0,0,1.87.62,4.28,1.6-.03.02-.05.05-.07.07l-7.34,8.43c-.25.27.17.67.43.41.03-.04,8.08-7.86,8.1-7.89.13-.15.19-.32.19-.47.58.24,1.19.51,1.79.8,0,.01-.01.01-.01.02l-2.94,8.23c-.13.34.4.54.53.2,0,0,2.97-7.32,3.26-8.06,1.5.74,2.97,1.55,4.11,2.38,1.05.84,2,1.82,2.84,2.92Z"/>
        <path class="cls-10" d="M70.1,84.43c-1.34,1.23-2.13,2.07-2.13,2.07-1.14-.83-2.61-1.64-4.11-2.38.01-.04.02-.06.02-.06.21-.56-.65-.87-.86-.33-.6-.29-1.21-.56-1.79-.8.02-.62-.81-1.1-1.31-.55-2.41-.98-4.28-1.6-4.28-1.6.24-.71.38-1.45.42-2.21h.01s2.53-.36,5.68.4c.09.32.36.58.71.62.27.04.52-.05.7-.21,2.36.81,4.9,2.31,6.94,5.05Z"/>
        <path class="cls-10" d="M63.02,83.73c.21-.54,1.07-.23.86.33,0,0,0,.02-.02.06-.14-.07-.28-.13-.42-.2s-.28-.13-.42-.19Z"/>
        <path class="cls-10" d="M63.44,83.92c.14.07.28.13.42.2-.29.74-3.26,8.06-3.26,8.06-.13.34-.66.14-.53-.2l2.94-8.23s.01-.01.01-.02c.14.06.28.12.42.19Z"/>
        <path class="cls-10" d="M62.49,67.29c1.04,3.76,1.47,7.65.95,11.56-.02.21-.13.39-.28.53-.22-.08-.45-.15-.67-.21-.25-.07-.5-.14-.74-.2-.05-.15-.05-.3,0-.46.87-3.58.84-7.45.22-11.09-.07-.33.44-.45.53-.13Z"/>
        <path class="cls-10" d="M62.49,79.17c.22.06.45.13.67.21-.18.16-.43.25-.7.21-.35-.04-.62-.3-.71-.62.24.06.49.13.74.2Z"/>
        <path class="cls-10" d="M59.92,82.38c.5-.55,1.33-.07,1.31.55-.13-.06-.25-.11-.37-.16-.32-.14-.63-.27-.94-.39Z"/>
        <path class="cls-10" d="M60.86,82.77c.12.05.24.1.37.16,0,.15-.06.32-.19.47-.02.03-8.07,7.85-8.1,7.89-.26.26-.68-.14-.43-.41l7.34-8.43s.04-.05.07-.07c.31.12.62.25.94.39Z"/>
      </g>
      <g>
        <path class="cls-2" d="M155.92,183.1c-2.26.65-5.13,1.49-8.45,2.31-.07.01-.15.03-.22.05"/>
        <path class="cls-4" d="M165.55,12.87c3.17,3.36,5.85,7.15,8.15,11.22,1.45,2.56,2.74,5.23,3.91,7.96,1.1,2.59,2.09,5.24,2.99,7.92"/>
        <path class="cls-4" d="M102.19,12.48c5.33-4.63,11.48-7.86,18.09-9.78,6.84-2,14.17-2.6,21.57-1.94,6.85.62,13.32,3.26,18.71,7.52,1.79,1.41,3.44,2.94,4.97,4.58"/>
        <path class="cls-4" d="M91.83,25.01c1.64-2.75,3.54-5.39,5.7-7.88,1.46-1.68,3.01-3.22,4.64-4.64"/>
        <path class="cls-4" d="M86.7,35.5c1.41-3.62,3.08-7.13,5.1-10.47"/>
        <path class="cls-4" d="M82.82,72.01c3.69,4,10.06,9.41,18.11,10.34,10.78,1.25,11.22-4.34,17-4,5.78.33,11.67,7.11,21,7.44,9.04.33,27.63-6.81,45.55-22.61.56-.5,1.13-1,1.69-1.52-.31-1.62-.65-3.23-1.01-4.84-.18-.83-.37-1.66-.57-2.5"/>
        <path class="cls-4" d="M82.46,49.63c-1.31,5.75-2.25,11.61-3.11,17.39-.02.18-.05.36-.08.54"/>
        <path class="cls-4" d="M179.13,52.57c-58.89,18-94.11-3.54-94.11-3.54"/>
        <path class="cls-4" d="M74.14,85.86c.08-.08.16-.17.24-.25.07-.08.15-.16.23-.24.09-.1.19-.19.27-.27l.25-.25c.09-.09.16-.17.24-.23.07-.08.14-.15.21-.21.06-.07.13-.13.19-.19.06-.07.11-.12.17-.16l.14-.14c.05-.05.09-.09.12-.11l.09-.09s.02-.03.04-.04c0-.01.03-.02.03-.03.03-.04.05-.04.05-.04h0c.45-1.58.82-3.24,1.14-4.93"/>
        <path class="cls-4" d="M190.92,107.85c-.07-3.83-.23-7.6-.47-11.21"/>
        <path class="cls-2" d="M189.09,136.03c1.55-8.75,2-18.65,1.83-28.18"/>
        <path class="cls-4" d="M76.22,102.97c-1.42.64-2.72,1.28-3.86,1.85"/>
        <path class="cls-4" d="M65.24,96.31c.6-.84,1.22-1.64,1.83-2.42"/>
        <path class="cls-4" d="M71.04,89.17c-.08.08-.15.16-.23.25"/>
        <path class="cls-2" d="M87.55,195.8c-2.03-.25-4.24-.68-6.62-1.34"/>
        <path class="cls-4" d="M112.01,176.04s-.26,5.62-3.43,10.9c-3.18,5.31-9.3,10.27-21.03,8.86"/>
        <path class="cls-4" d="M93.66,47.41c-3.79.61-6.73,1.2-8.64,1.62-1.67.36-2.56.6-2.56.6l.18-9.33c0-1.89.97-3.51,2.71-4.24.45-.19.9-.38,1.35-.56,2.62-1.07,5.21-2.02,7.77-2.86"/>
        <path class="cls-4" d="M168.33,34.4c5.32,2.02,9.49,4.07,12.27,5.57.62.34,1.17.64,1.65.92,1.45.84,2.34,2.13,2.34,3.8v9.63c-1.82-.62-3.64-1.2-5.45-1.75h-.01c-3.16-.95-6.3-1.8-9.41-2.54"/>
        <path class="cls-4" d="M93.66,47.41c-1.81-8.4.69-14.48.81-14.77"/>
        <path class="cls-4" d="M169.72,50.03c-5.04-1.21-10.01-2.16-14.88-2.89-5.14-.78-10.16-1.32-15-1.67h-.04c-5.75-.41-11.24-.55-16.39-.5-5.49.05-10.6.32-15.21.71-5.65.47-10.57,1.11-14.54,1.73"/>
        <path class="cls-4" d="M168.33,34.4c.14.39,2.99,8.26,1.39,15.63"/>
        <path class="cls-4" d="M152.69,29.73c5.93,1.31,11.18,2.98,15.63,4.66"/>
        <path class="cls-4" d="M94.47,32.64c4.68-1.55,9.27-2.72,13.73-3.59,5.25-1.01,10.33-1.59,15.21-1.84,5.52-.27,10.78-.11,15.74.37,4.82.46,9.34,1.21,13.53,2.14"/>
        <path class="cls-4" d="M91.8,25.03s.01-.01.03-.02c1.19-.56,34.29-15.86,85.78,7.04"/>
        <path class="cls-4" d="M102.17,12.49s.01,0,.02-.01c.89-.32,30.14-10.65,71.51,11.61"/>
        <path class="cls-4" d="M120.25,2.71s0,0,.03-.01c.84-.14,20.53-3.36,45.25,10.16.01,0,.01.01.02.01"/>
        <line class="cls-4" x1="93.66" y1="47.42" x2="93.66" y2="47.41"/>
        <path class="cls-4" d="M94.47,32.64h0"/>
        <path class="cls-4" d="M108.2,29.05s-2.33,11.5,0,16.63"/>
        <line class="cls-4" x1="123.41" y1="27.21" x2="123.41" y2="44.97"/>
        <path class="cls-4" d="M139.15,27.58s2.6,10.03.71,17.61"/>
        <path class="cls-4" d="M152.68,29.72s0,0,.01,0c.2.39,4.3,8.29,2.15,17.4"/>
        <path class="cls-4" d="M168.33,34.4h-.01"/>
        <path class="cls-4" d="M184.93,52.36s3.9-.31,4.5,3.55c.13.85.1,1.92-.17,3.24"/>
        <path class="cls-4" d="M189.51,55.9s9.71-2.37,24.01,9.85c.59.5.44,1.45-.26,1.77-2.71,1.25-8.83,3.49-14.91,1.8"/>
        <path class="cls-4" d="M186.39,62.79c-.07-.38-.14-.75-.22-1.13"/>
        <path class="cls-4" d="M198.35,69.32c.35.87.65,1.81.88,2.82.28,1.2.41,2.41.48,3.64.08,1.4.74,5.23,5.35,7.81.24.13.12.5-.15.46-3.33-.54-11.55-2.45-16.5-8.49-.55-4.27-1.22-8.53-2.02-12.77.93-.33,1.57-.93,2-1.53.73-1.03.87-2.11.87-2.11,0,0,6.22,2.89,9.09,10.17Z"/>
        <path class="cls-4" d="M79.27,67.59s1.26,1.94,3.55,4.42"/>
        <path class="cls-4" d="M64.16,127.96c-1.25,12.5-.21,25.62,5.97,36.4-11.67,10.9-67.32,16.41-69.55-28.33-2.44-49.19,55.06-55.25,55.06-55.25.24-.71.38-1.45.42-2.21.45-6.43-5.43-13.98-7.68-16.61-.43-.51-.17-1.29.47-1.46,5.01-1.33,10.9,2.8,10.9,2.8,7.44-7.31,15.94,3,15.94,3,1.25-.05,2.29.14,3.16.49.15.27.28.51.42.77v.03c-.52,3.54-1,7.4-1.71,11.09-3.06,1.92-5.72,4.17-7.46,5.75"/>
        <path class="cls-4" d="M67.97,86.5c1.05.84,2,1.82,2.84,2.92t0,.01"/>
        <path class="cls-4" d="M89.52,121.87c-1.48,1.46-3.11,2.82-4.86,3.99-2.44,1.64-5.08,2.93-7.82,3.64-4.16,1.09-8.53.84-12.68-1.54-.01,0-.01-.01-.02-.01-.17-.1-.34-.2-.51-.31-.53-.32-1.06-.69-1.58-1.09-7.19-5.53-6.03-13.78-2.18-21.57.23-.47.47-.93.72-1.39.49-.92,1.02-1.84,1.58-2.73.28-.45.56-.9.84-1.34.29-.44.58-.88.88-1.31.44-.65.89-1.28,1.35-1.9.61-.84,1.22-1.64,1.83-2.42.15-.19.31-.39.46-.58.31-.38.61-.75.91-1.12l.45-.54c.6-.71,1.19-1.39,1.75-2.03.05-.06.11-.13.17-.19"/>
        <path class="cls-4" d="M91.75,119.48c-.4.48-.83.95-1.27,1.41"/>
        <path class="cls-4" d="M87.44,99.88c3.65-.14,7.07.95,9.5,4.36,1.61,2.26.66,6.43-1.94,10.76-.74,1.24-1.62,2.49-2.62,3.72"/>
        <path class="cls-4" d="M76.22,102.97c.87-.38,1.78-.77,2.72-1.13"/>
        <path class="cls-4" d="M59.92,82.38c-2.41-.98-4.28-1.6-4.28-1.6"/>
        <path class="cls-4" d="M63.02,83.73c-.6-.29-1.21-.56-1.79-.8"/>
        <path class="cls-4" d="M67.97,86.5c-1.14-.83-2.61-1.64-4.11-2.38"/>
        <path class="cls-4" d="M95,115c3.88,5.46,7.97,9.12,10,10.76.56.46.46,1.34-.2,1.63-2.25,1.01-6.35,3.18-7.48,6.11-.14.35-.48.56-.85.57-1.74.05-6.5.42-9.52,2.74-.61.47-1.5.02-1.52-.75-.08-2.19-.27-5.83-.77-10.2"/>
        <path class="cls-4" d="M82.29,100.74c-1.14.3-2.26.69-3.35,1.1-1.11-2.71-2.41-5.3-3.93-7.65-1.18-1.84-2.5-3.52-3.97-5.02-.96-.98-1.98-1.88-3.07-2.67,0,0,.79-.84,2.13-2.07,0,0,1.65.3,4.03,1.43h.01c3.86,1.81,9.63,5.76,13.3,14.02-1.34.04-2.7.25-4.05.58"/>
        <path class="cls-4" d="M63.16,79.38c2.36.81,4.9,2.31,6.94,5.05"/>
        <path class="cls-4" d="M56.07,78.57s2.53-.36,5.68.4"/>
        <path class="cls-4" d="M147.25,185.46c-5.2,1.26-11.5,2.44-18.29,2.64-7.5.22-14.19-.17-20.15-1.03"/>
        <path class="cls-4" d="M147.48,185.46c3.99,2.81,9.94,7.83,13.98,14.45.96,1.57,2.7,2.49,4.54,2.49h14.36c3.87,0,7.09-3.26,6.71-7.11-.25-2.57-2.03-5.06-7.47-5.93-.81-.13-1.43-.8-1.46-1.62-.14-3.22-.88-11.1-4.67-16.38-.46-.63-.43-1.49.09-2.06.3-.34.6-.69.9-1.04,7.72-9.15,12.32-20.56,14.63-32.23,30.3.48,31.07-12.3,29.35-16.96-1.75-4.75-8.66-2.75-12.83-2.92-3.15-.12-10.95-5.62-14.58-8.3-.1-3.74-.31-7.48-.58-11.21-.04-.68-.09-1.36-.14-2.03-.47-6.36-1.07-12.72-1.9-19.05"/>
        <path class="cls-4" d="M70.13,164.36c1.79,3.14,4.01,6.06,6.74,8.73.87.85.72,2.28-.32,2.92l-3.16,1.96c-2.37,1.46-3.97,3.91-4.33,6.67-.69,5.41-.61,14.22,6.17,18.23,2.24,1.33,5.02,1.41,7.25.07,1.9-1.14,3.98-3.25,5.07-7.14h0"/>
      </g>
    </g>
    <path class="cls-1" d="M113.98,87.29c2.28.54,4.63,1.09,7.01.71,2.39-.32,4.78-1.3,6.9-2.45.14-.08.33-.03.41.12.06.13.03.28-.09.36-3.92,3.07-10.29,5.32-14.75,2.11-.43-.36.01-1.06.52-.85h0Z"/>
    <path class="cls-4" d="M56.07,78.57s2.93-.42,6.42.6c2.54.74,5.38,2.26,7.61,5.26"/>
    <path class="cls-4" d="M67.97,86.5c-1.25-.91-2.88-1.79-4.53-2.58-.87-.41-1.74-.8-2.58-1.15-2.84-1.2-5.22-1.99-5.22-1.99"/>
    <path class="cls-4" d="M76.22,102.97c-1.42.64-2.72,1.28-3.86,1.85"/>
    <path class="cls-4" d="M76.22,102.97c.87-.38,1.78-.77,2.72-1.13,1.29-.49,2.63-.94,3.98-1.27,1.51-.39,3.03-.65,4.52-.69,3.65-.14,7.07.95,9.5,4.36,1.61,2.26.66,6.43-1.94,10.76-.82,1.37-1.81,2.76-2.93,4.11-.64.77-1.32,1.52-2.04,2.25-1.61,1.65-3.42,3.19-5.37,4.5-2.44,1.64-5.08,2.93-7.82,3.64-4.16,1.09-8.53.84-12.68-1.54-.01,0-.01-.01-.02-.01-.17-.1-.34-.2-.51-.31-.53-.32-1.06-.69-1.58-1.09-7.19-5.53-6.03-13.78-2.18-21.57.23-.47.47-.93.72-1.39.49-.92,1.02-1.84,1.58-2.73.28-.45.56-.9.84-1.34.29-.44.58-.88.88-1.31.44-.65.89-1.28,1.35-1.9.61-.84,1.22-1.64,1.83-2.42.15-.19.31-.39.46-.58.31-.38.61-.75.91-1.12.15-.18.3-.36.45-.54.6-.71,1.19-1.39,1.75-2.03.05-.06.11-.13.17-.19"/>
    <path class="cls-3" d="M21.72,112.77c-4.89,4.29-7.89,10.9-8.01,17.63-.03,1.86.27,4,2.14,4.73.86.33,1.82.22,2.66-.17,1.89-.88,2.97-2.72,4.29-4.28.78-.92,1.98-2.91,3.2-3.94.5-.42,1.23.04,1.11.7-.33,1.85-.79,4.44-.71,5.73.1,1.66.6,3.36,1.7,4.55s2.86,1.78,4.31,1.15c1.33-.58,2.15-1.98,2.88-3.3,2.67-4.83,5.33-9.65,8-14.48"/>
    <path class="cls-3" d="M10.07,120.59c10.2,6.85,21.92,11.13,33.94,12.4"/>
  </g>
</svg>