<svg width="41" height="27" viewBox="0 0 41 27" fill="none" xmlns="http://www.w3.org/2000/svg">
<path d="M23.6926 1.63559C16.9242 0.641486 4.95132 0.20755 1.78227 10.2827C0.723157 13.6595 0.706612 17.9673 3.95841 20.2711C6.21729 21.8806 8.38516 21.1469 10.7433 20.4605C11.3474 20.2869 12.0093 20.5078 12.3154 21.0049C13.2587 22.5197 15.6417 25.4941 19.7127 25.1154C19.7127 25.1154 23.0969 25.4547 25.9515 22.9379C26.3487 22.5907 26.9609 22.5513 27.3664 22.8747C28.4255 23.7268 30.6761 25.0208 33.9527 24.1844C37.8085 23.1982 39.058 19.7425 39.1407 16.3973C39.3558 7.99472 34.4326 3.18987 23.6843 1.61981L23.6926 1.63559Z" fill="#B3DCFF"/>
<path d="M23.6926 1.63559C16.9242 0.641486 4.95132 0.20755 1.78227 10.2827C0.723157 13.6595 0.706612 17.9673 3.95841 20.2711C6.21729 21.8806 8.38516 21.1469 10.7433 20.4605C11.3474 20.2869 12.0093 20.5078 12.3154 21.0049C13.2587 22.5197 15.6417 25.4941 19.7127 25.1154C19.7127 25.1154 23.0969 25.4547 25.9515 22.9379C26.3487 22.5907 26.9609 22.5513 27.3664 22.8747C28.4255 23.7268 30.6761 25.0208 33.9527 24.1844C37.8085 23.1982 39.058 19.7425 39.1407 16.3973C39.3558 7.99472 34.4326 3.18987 23.6843 1.61981L23.6926 1.63559Z" stroke="#0070B7" stroke-width="2.3" stroke-miterlimit="10" stroke-linecap="round"/>
</svg>
