<svg width="183" height="143" viewBox="0 0 183 143" fill="none" xmlns="http://www.w3.org/2000/svg">
<path d="M152.876 140.189C160.321 137.125 167.776 133.632 173.153 127.503C178.26 121.675 181.048 113.77 181.118 105.875C181.198 97.7911 178.51 89.7667 173.943 83.2494C182.747 71.6718 183.287 54.1259 175.372 41.9096C174.472 40.5223 173.453 39.1749 172.124 38.2367C169.026 36.051 164.928 36.4801 161.241 37.1588C150.977 39.0452 140.923 42.1891 131.359 46.5207C118.797 40.7419 106.265 38.1269 91.1248 38.4763C76.6939 38.596 63.4523 40.7419 50.8902 46.5207C41.3263 42.1891 31.2826 39.0452 21.0091 37.1588C17.3214 36.4801 13.224 36.051 10.1259 38.2367C8.79678 39.1749 7.77742 40.5223 6.87799 41.9096C-1.03701 54.1259 -0.497356 71.6718 8.30709 83.2494C3.73997 89.7667 1.05167 97.7911 1.13162 105.875C1.21157 113.77 3.98981 121.685 9.09659 127.503C14.4732 133.632 21.9285 137.125 29.3738 140.189" fill="#B3DCFF"/>
<path d="M82.0507 103.011C81.3711 108.62 83.2099 120.767 91.6846 120.337C99.3198 119.958 100.489 109.538 100.179 102.911L90.8451 99.8672L82.0507 103.011Z" fill="#6DC1FF"/>
<path d="M82.0507 103.01C81.3711 108.619 83.2099 120.765 91.6846 120.336C99.3198 119.957 100.489 109.537 100.179 102.91" stroke="#0070B7" stroke-width="2.3" stroke-miterlimit="10" stroke-linecap="round"/>
<path d="M167.057 49.5027C169.356 51.399 172.854 60.3217 167.467 71.51C167.137 72.2086 166.268 72.3983 165.748 71.8294C159.882 65.5416 152.507 59.8925 145.041 55.8803C144.542 55.6208 144.542 54.8823 145.021 54.6128C153.106 50.0217 163.84 46.8379 167.057 49.5027Z" fill="#6DC1FF"/>
<path d="M37.2387 54.6142C37.7284 54.8937 37.7184 55.6222 37.2187 55.8817C29.7534 59.9039 22.368 65.553 16.5117 71.8308C15.9921 72.3897 15.1226 72.21 14.7928 71.5114C9.40623 60.3231 12.904 51.4004 15.2026 49.5041C18.4205 46.8393 29.1538 50.0131 37.2387 54.6142Z" fill="#6DC1FF"/>
<path d="M50.87 109.369C50.87 94.6573 38.7577 82.7305 23.8171 82.7305C15.9621 82.7305 8.89652 86.0241 3.95964 91.2839C2.10081 95.8949 1.09145 100.875 1.14142 105.876C1.22137 113.77 3.99962 121.685 9.10639 127.504C12.1145 130.927 15.7722 133.532 19.7197 135.698C21.0588 135.897 22.428 135.997 23.8171 135.997C38.7577 135.997 50.87 124.07 50.87 109.359V109.369Z" fill="#6DC1FF"/>
<path d="M131.35 109.369C131.35 124.08 143.462 136.007 158.403 136.007C159.812 136.007 161.201 135.897 162.55 135.698C166.487 133.532 170.145 130.927 173.153 127.504C178.26 121.675 181.048 113.77 181.118 105.876C181.168 100.895 180.169 95.9448 178.32 91.3537C173.373 86.054 166.288 82.7305 158.403 82.7305C143.462 82.7305 131.35 94.6573 131.35 109.369Z" fill="#6DC1FF"/>
<path d="M131.97 43.5786C136.207 41.1433 142.113 37.8098 141.164 31.6917C141.134 31.4721 141.084 31.2525 141.044 31.0329C139.985 26.1225 136.157 22.5095 132.649 19.4754C122.116 10.383 109.144 3.46644 95.7024 1.50025C92.5145 1.03117 89.2665 1.03117 86.0785 1.50025C72.637 3.46644 59.6752 10.383 49.1318 19.4853C45.6141 22.5195 41.7965 26.1324 40.7371 31.0429C40.6872 31.2625 40.6472 31.4821 40.6172 31.7016C39.6778 37.8198 45.5841 41.1533 49.8114 43.5886C58.9556 40.1353 73.6164 35.9035 91.9648 36.0731C109.224 36.2328 123.065 40.2251 131.97 43.5886V43.5786Z" fill="#0B4692"/>
<path d="M145.041 55.8803C152.507 59.9025 159.892 65.5516 165.748 71.8393C166.268 72.3983 167.127 72.2186 167.467 71.51C172.854 60.3217 169.346 51.399 167.057 49.5027C163.839 46.8379 153.106 50.0217 145.021 54.6128C144.532 54.8922 144.542 55.6208 145.041 55.8903V55.8803Z" stroke="#0070B7" stroke-width="2.3" stroke-miterlimit="10" stroke-linecap="round"/>
<path d="M28.2646 141.147C28.7443 140.688 28.5944 139.859 27.9948 139.61C21.0192 136.676 14.1535 133.242 9.1167 127.503C4.00992 121.675 1.22168 113.77 1.15173 105.875C1.08177 97.9808 3.76008 89.7667 8.3272 83.2494C-0.487237 71.6718 -1.0269 54.1259 6.88811 41.9096C7.78754 40.5223 8.8069 39.1749 10.1361 38.2367C13.2341 36.051 17.3315 36.4801 21.0192 37.1588C31.2827 39.0452 41.3364 42.1891 50.9003 46.5207C63.4624 40.7419 76.7041 38.596 91.1349 38.4763C106.275 38.1269 118.807 40.7419 131.37 46.5207C140.934 42.1891 150.977 39.0452 161.251 37.1588C164.938 36.4801 169.036 36.051 172.134 38.2367C173.463 39.1749 174.482 40.5223 175.382 41.9096C183.297 54.1259 182.757 71.6718 173.953 83.2494C178.52 89.7667 181.208 97.7911 181.128 105.875C181.048 113.96 178.27 121.685 173.163 127.503C168.126 133.242 161.261 136.676 154.285 139.61C153.675 139.859 153.536 140.698 154.015 141.147" stroke="#0070B7" stroke-width="2.3" stroke-miterlimit="10" stroke-linecap="round"/>
<path d="M92.9838 86.8034C91.9344 87.6917 90.3354 87.6917 89.2861 86.8034C84.1693 82.5118 72.017 84.1586 71.3074 92.3227C70.3181 103.79 84.9888 105.517 91.1349 98.86C97.281 105.517 111.942 103.79 110.952 92.3227C110.253 84.1586 98.0905 82.5118 92.9838 86.8034Z" fill="white"/>
<path d="M37.2188 55.8803C29.7535 59.9025 22.3682 65.5516 16.5119 71.8393C15.9922 72.3983 15.1328 72.2186 14.793 71.51C9.40639 60.3217 12.9142 51.399 15.2027 49.5027C18.4207 46.8379 29.1539 50.0217 37.2388 54.6128C37.7285 54.8922 37.7185 55.6208 37.2188 55.8903V55.8803Z" stroke="#0070B7" stroke-width="2.3" stroke-miterlimit="10" stroke-linecap="round"/>
<path d="M92.5041 87.2431C91.7345 88.0216 90.5253 88.0216 89.7558 87.2431C84.9588 82.4124 72.037 83.8996 71.3074 92.3232C70.3181 103.791 84.9888 105.518 91.1349 98.8605C97.281 105.518 111.942 103.791 110.952 92.3232C110.223 83.8896 97.291 82.4124 92.5041 87.2431Z" stroke="#0070B7" stroke-width="2.3" stroke-miterlimit="10" stroke-linecap="round"/>
<path d="M93.4834 73.2305L93.5934 77.9912" stroke="#0070B7" stroke-width="2.3" stroke-miterlimit="10" stroke-linecap="round"/>
<path d="M88.0768 73.3984L87.9668 78.1592" stroke="#0070B7" stroke-width="2.3" stroke-miterlimit="10" stroke-linecap="round"/>
<path d="M73.6665 76.6319C75.0356 78.5981 74.7558 81.3328 73.3067 82.4307C71.8576 83.5285 69.2992 82.8399 67.9301 80.8737C66.561 78.9075 66.9207 76.3924 68.3598 75.3045C69.7989 74.2166 72.2973 74.6657 73.6665 76.6419V76.6319Z" fill="#006DB3"/>
<path d="M91.055 91.0536C93.616 91.0536 95.6921 89.36 95.6921 87.2709C95.6921 85.1818 93.616 83.4883 91.055 83.4883C88.4941 83.4883 86.418 85.1818 86.418 87.2709C86.418 89.36 88.4941 91.0536 91.055 91.0536Z" fill="#FF6692"/>
<path d="M91.055 91.0536C93.616 91.0536 95.6921 89.36 95.6921 87.2709C95.6921 85.1818 93.616 83.4883 91.055 83.4883C88.4941 83.4883 86.418 85.1818 86.418 87.2709C86.418 89.36 88.4941 91.0536 91.055 91.0536Z" stroke="#0070B7" stroke-width="2.3" stroke-miterlimit="10" stroke-linecap="round"/>
<path d="M98.1103 134.504C95.9816 134.863 93.4732 135.123 90.655 135.133C87.7068 135.143 85.0885 134.873 82.8799 134.504" stroke="#0070B7" stroke-width="2.3" stroke-miterlimit="10" stroke-linecap="round"/>
<path d="M49.8115 43.5786C45.5741 41.1433 39.6679 37.8098 40.6173 31.6916C40.6572 31.4721 40.6972 31.2525 40.7372 31.0329C41.7965 26.1225 45.6241 22.5095 49.1319 19.4754C59.6752 10.383 72.6371 3.46644 86.0786 1.50025C89.2666 1.03117 92.5145 1.03117 95.7025 1.50025C109.144 3.46644 122.106 10.383 132.649 19.4853C136.167 22.5195 139.985 26.1324 141.044 31.0429C141.094 31.2625 141.134 31.4821 141.164 31.7016C142.103 37.8198 136.197 41.1533 131.97 43.5886C123.065 40.2251 109.214 36.2328 91.9649 36.0731C73.6264 35.9035 58.9657 40.1353 49.8115 43.5886V43.5786Z" stroke="#00336B" stroke-width="2.3" stroke-miterlimit="10"/>
<path d="M50.1811 47.3297C49.4116 47.3297 48.6821 46.8406 48.4023 46.0422C48.0325 45.0142 48.5322 43.8664 49.5116 43.4871C63.073 38.1774 77.274 35.5326 91.7549 35.6523C105.636 35.7621 119.268 38.397 132.279 43.4871C133.259 43.8764 133.758 45.0142 133.389 46.0422C133.019 47.0702 131.92 47.5892 130.94 47.1999C118.348 42.2695 105.156 39.7144 91.7249 39.6146C77.7238 39.5048 63.9724 42.0599 50.8507 47.1999C50.6309 47.2897 50.401 47.3297 50.1811 47.3297Z" fill="#FFE500"/>
<path d="M50.1811 47.3297C49.4116 47.3297 48.6821 46.8406 48.4023 46.0422C48.0325 45.0142 48.5322 43.8664 49.5116 43.4871C63.073 38.1774 77.274 35.5326 91.7549 35.6523C105.636 35.7621 119.268 38.397 132.279 43.4871C133.259 43.8764 133.758 45.0142 133.389 46.0422C133.019 47.0702 131.92 47.5892 130.94 47.1999C118.348 42.2695 105.156 39.7144 91.7249 39.6146C77.7238 39.5048 63.9724 42.0599 50.8507 47.1999C50.6309 47.2897 50.401 47.3297 50.1811 47.3297Z" stroke="#E59E00" stroke-width="2.3" stroke-miterlimit="10"/>
<path d="M90.8953 24.5354C92.0709 24.5354 93.0239 23.3155 93.0239 21.8106C93.0239 20.3058 92.0709 19.0859 90.8953 19.0859C89.7196 19.0859 88.7666 20.3058 88.7666 21.8106C88.7666 23.3155 89.7196 24.5354 90.8953 24.5354Z" fill="#FFE500"/>
<path d="M105.616 79.6141C107.065 77.099 109.543 75.5919 112.292 74.9631C113.781 74.7036 116.449 73.9651 116.669 76.1608C116.709 77.0491 116.019 77.8076 115.13 77.8475C114.36 77.8276 113.581 77.7876 112.821 77.8974C110.813 78.107 108.674 79.175 107.545 80.8218C106.705 81.9695 104.936 80.8517 105.616 79.6041V79.6141Z" fill="#006DB3"/>
</svg>
