<svg width="14" height="17" viewBox="0 0 14 17" fill="none" xmlns="http://www.w3.org/2000/svg">
<path d="M6.79395 4.54688C9.91771 4.54696 12.4551 7.12682 12.4551 10.3027V13.5459H9.49707V10.7168C9.49707 9.19975 8.28547 7.96894 6.79492 7.96875C5.30266 7.96875 4.0918 9.20121 4.0918 10.7168V13.5459H1.13281V10.3027C1.13281 7.12677 3.66857 4.54688 6.79395 4.54688Z" fill="white"/>
<path d="M5.93649 10.6226C6.31779 10.6226 6.6269 10.3083 6.6269 9.92067C6.6269 9.53301 6.31779 9.21875 5.93649 9.21875C5.5552 9.21875 5.24609 9.53301 5.24609 9.92067C5.24609 10.3083 5.5552 10.6226 5.93649 10.6226Z" fill="white"/>
<path d="M0 16.354C0 16.7112 0.284829 17.0008 0.636222 17.0008H12.952C13.3034 17.0008 13.5882 16.7112 13.5882 16.354V15.6914H0V16.354Z" fill="white"/>
<path d="M13.5882 13.7204C13.5882 13.3872 13.3034 13.1172 12.952 13.1172H0.636222C0.284829 13.1172 0 13.3872 0 13.7204V14.4028H13.5882V13.7204Z" fill="white"/>
<rect x="6.5752" width="1.69853" height="2.5712" rx="0.849263" fill="white"/>
<rect width="1.7032" height="2.56424" rx="0.851598" transform="matrix(0.83543 0.549597 -0.542586 0.84 12.5771 1.45703)" fill="white"/>
<rect width="1.7032" height="2.56424" rx="0.851598" transform="matrix(-0.83543 0.549597 0.542586 0.84 2.27246 1.45703)" fill="white"/>
</svg>
