<svg width="22" height="22" viewBox="0 0 22 22" fill="none" xmlns="http://www.w3.org/2000/svg">
<path d="M17.9941 2.05078H4.00592C2.89808 2.05078 2 2.92967 2 4.01384V20.0354C2 21.1196 2.89808 21.9985 4.00592 21.9985H17.9941C19.1019 21.9985 20 21.1196 20 20.0354V4.01384C20 2.92967 19.1019 2.05078 17.9941 2.05078Z" fill="#69B6FF"/>
<mask id="mask0_6275_14625" style="mask-type:luminance" maskUnits="userSpaceOnUse" x="2" y="2" width="18" height="20">
<path d="M17.9941 2.05078H4.00592C2.89808 2.05078 2 2.92967 2 4.01384V20.0354C2 21.1196 2.89808 21.9985 4.00592 21.9985H17.9941C19.1019 21.9985 20 21.1196 20 20.0354V4.01384C20 2.92967 19.1019 2.05078 17.9941 2.05078Z" fill="white"/>
</mask>
<g mask="url(#mask0_6275_14625)">
<path d="M24.1206 -0.0546875H0.117188V5.21626H24.1206V-0.0546875Z" fill="#339DFF"/>
</g>
<path d="M15.2624 9.7455H6.74232C6.17623 9.7455 5.7168 9.29588 5.7168 8.74189C5.7168 8.1879 6.17623 7.73828 6.74232 7.73828H15.2624C15.8285 7.73828 16.2879 8.1879 16.2879 8.74189C16.2879 9.29588 15.8285 9.7455 15.2624 9.7455Z" fill="#C4E3FF"/>
<path d="M15.2624 13.4447H6.74232C6.17623 13.4447 5.7168 12.9951 5.7168 12.4411C5.7168 11.8871 6.17623 11.4375 6.74232 11.4375H15.2624C15.8285 11.4375 16.2879 11.8871 16.2879 12.4411C16.2879 12.9951 15.8285 13.4447 15.2624 13.4447Z" fill="#C4E3FF"/>
<path d="M15.2624 17.39H6.74232C6.17623 17.39 5.7168 16.9404 5.7168 16.3864C5.7168 15.8324 6.17623 15.3828 6.74232 15.3828H15.2624C15.8285 15.3828 16.2879 15.8324 16.2879 16.3864C16.2879 16.9404 15.8285 17.39 15.2624 17.39Z" fill="#C4E3FF"/>
<path d="M14.0394 1.28662H13.7338V0.881167C13.7338 0.395421 13.3318 0 12.8334 0H9.16817C8.67182 0 8.26776 0.393414 8.26776 0.881167V1.28662H7.96216C7.34889 1.28662 6.85254 1.77237 6.85254 2.37253C6.85254 2.97268 7.34889 3.45843 7.96216 3.45843H14.0394C14.6527 3.45843 15.149 2.97268 15.149 2.37253C15.149 1.77237 14.6527 1.28662 14.0394 1.28662Z" fill="#C4E3FF"/>
</svg>
